<?xml version="1.0" encoding="utf-8"?>
<!-- Generator: Adobe Illustrator 16.0.0, SVG Export Plug-In . SVG Version: 6.00 Build 0)  -->
<!DOCTYPE svg PUBLIC "-//W3C//DTD SVG 1.1//EN" "http://www.w3.org/Graphics/SVG/1.1/DTD/svg11.dtd">
<svg version="1.1" xmlns="http://www.w3.org/2000/svg" xmlns:xlink="http://www.w3.org/1999/xlink" x="0px" y="0px" width="800px"
	 height="250px" viewBox="0 0 800 250" enable-background="new 0 0 800 250" xml:space="preserve">
<g id="Layer_2" display="none">
	<rect y="0.167" display="inline" fill="#0F0808" width="800" height="250.667"/>
</g>
<g id="Layer_1">
	<g>
		<path fill="#FFFFFF" d="M1.457,45.637c0-27.15,20.824-45.471,48.371-45.471c23.064,0,34.663,13.443,39.935,25.569L66.829,36.412
			c-2.24-6.854-9.093-12.784-17.001-12.784c-12.785,0-21.352,9.752-21.352,22.01s8.567,22.011,21.352,22.011
			c7.908,0,14.761-5.931,17.001-12.785l22.934,10.544c-5.141,11.731-16.871,25.701-39.935,25.701
			C22.281,91.108,1.457,72.656,1.457,45.637z"/>
		<path fill="#FFFFFF" d="M155.393,89.527l-3.163-10.28h-31.631l-3.164,10.28H87.252l32.423-87.911h33.477l32.422,87.911H155.393z
			 M136.413,27.712l-8.699,28.337h17.398L136.413,27.712z"/>
		<path fill="#FFFFFF" d="M201.253,89.527V24.812h-23.592V1.616h73.675v23.197h-23.461v64.714H201.253z"/>
		<path fill="#FFFFFF" d="M252.78,77.138l13.84-19.771c6.589,6.328,16.475,11.335,28.336,11.335c5.009,0,9.754-1.318,9.754-4.745
			c0-8.435-49.03,0.132-49.03-34.532c0-14.893,12.39-29.127,36.509-29.127c14.366,0,27.282,4.086,37.298,12.257l-14.233,18.848
			c-7.645-5.799-17.53-8.699-25.834-8.699c-5.271,0-6.721,1.714-6.721,3.954c0,8.305,48.897,1.187,48.897,33.873
			c0,19.374-14.366,30.577-37.958,30.577C274.923,91.108,262.139,85.573,252.78,77.138z"/>
		<path fill="#FFFFFF" d="M1.457,174.793c0-28.206,21.747-45.471,48.371-45.471c20.956,0,33.082,11.599,38.616,22.934
			l-22.405,11.467c-2.505-5.404-8.303-10.939-16.211-10.939c-12.785,0-21.352,9.752-21.352,22.01s8.567,22.011,21.352,22.011
			c5.008,0,10.939-1.845,13.706-3.954v-3.162H47.191v-23.197h42.836v35.981c-9.754,10.807-22.934,17.793-40.199,17.793
			C23.204,220.265,1.457,202.867,1.457,174.793z"/>
		<path fill="#FFFFFF" d="M97.137,174.793c0-27.019,20.956-45.471,48.106-45.471c27.151,0,48.107,18.452,48.107,45.471
			s-20.956,45.472-48.107,45.472C118.093,220.265,97.137,201.812,97.137,174.793z M166.332,174.793
			c0-12.258-8.303-22.01-21.088-22.01s-21.088,9.752-21.088,22.01s8.303,22.011,21.088,22.011S166.332,187.051,166.332,174.793z"/>
		<path fill="#FFFFFF" d="M261.878,218.683l-32.422-44.55v44.55h-26.624v-87.91h27.415l30.577,41.647v-41.647h26.624v87.91H261.878z
			"/>
		<path fill="#FFFFFF" d="M301.676,218.683v-87.91h66.691v23.195H328.3v8.7h39.145v23.196H328.3v9.621h40.067v23.197H301.676z"/>
		<path fill="#FFFFFF" d="M409.085,174.793c0-28.206,21.747-45.471,48.37-45.471c20.956,0,33.082,11.599,38.616,22.934
			l-22.405,11.467c-2.505-5.404-8.303-10.939-16.211-10.939c-12.785,0-21.353,9.752-21.353,22.01s8.567,22.011,21.353,22.011
			c5.008,0,10.939-1.845,13.706-3.954v-3.162h-16.342v-23.197h42.835v35.981c-9.754,10.807-22.935,17.793-40.199,17.793
			C430.832,220.265,409.085,202.867,409.085,174.793z"/>
		<path fill="#FFFFFF" d="M504.764,174.793c0-27.019,20.957-45.471,48.107-45.471c27.148,0,48.106,18.452,48.106,45.471
			s-20.958,45.472-48.106,45.472C525.721,220.265,504.764,201.812,504.764,174.793z M573.959,174.793
			c0-12.258-8.305-22.01-21.088-22.01c-12.785,0-21.088,9.752-21.088,22.01s8.303,22.011,21.088,22.011
			C565.654,196.804,573.959,187.051,573.959,174.793z"/>
		<path fill="#FFFFFF" d="M711.412,218.683v-87.91h39.276c27.678,0,48.239,15.814,48.239,43.89
			c0,28.073-20.562,44.021-48.108,44.021H711.412z M771.907,174.663c0-11.862-6.854-20.694-21.088-20.694h-12.782v41.518h12.651
			C764.001,195.486,771.907,185.733,771.907,174.663z"/>
		<g>
			<path fill="#FFFFFF" d="M643.637,130.817c-15.104,3.895-27.245,15.011-32.482,29.736c-3.135,8.816-3.549,18.284-1.203,27.385
				c1.441,5.584,3.852,10.778,7.163,15.438c3.196,4.498,7.139,8.375,11.715,11.51l0,0c0.229,0.156,0.464,0.302,0.698,0.453
				c-6.15,7.45-15.253,11.644-27.096,12.452c-0.365-0.009-1.077-0.007-1.991,0.005c2-4.449,4.244-11.542,1.802-17.508
				c-0.109-0.27-0.231-0.543-0.36-0.811c-2.475-5.018-7.928-7.945-16.211-8.704c-1.182-0.108-2.228,0.762-2.334,1.944
				c-0.032,0.356,0.022,0.701,0.148,1.007c0.296,0.721,0.968,1.251,1.792,1.326c6.688,0.612,10.976,2.738,12.743,6.319
				c0.09,0.186,0.174,0.37,0.251,0.561c2.215,5.405-0.965,12.742-2.706,16.093c-7.185,0.54-17.646,2.279-21.313,7.903
				c-1.21,1.849-2.229,4.971-0.206,9.341l0.062,0.134l0.078,0.119c0.701,1.103,2.719,2.97,5.802,2.955
				c5.31-0.025,11.42-5.511,18.17-16.303c1.544-0.075,3.033-0.11,4.337-0.084l0.091-0.004l0.096-0.004
				c13.359-0.904,23.629-5.794,30.566-14.515c10.317,5.514,22.386,7.009,33.823,4.054c25.037-6.46,40.152-32.087,33.688-57.121
				C694.295,139.466,668.671,124.354,643.637,130.817z M580.052,244.178c-1.33,0.037-2.01-0.686-2.196-0.92
				c-0.037-0.081-0.073-0.166-0.108-0.25c-0.775-1.895-0.743-3.45,0.097-4.736c2.03-3.107,8.457-4.841,14.877-5.64
				C585.827,242.825,581.612,244.132,580.052,244.178z M644.708,134.978c0.544-0.142,1.091-0.234,1.634-0.35
				c-3.104,3.131-7.028,6.344-10.718,8.679c-3.904,2.472-8.246,3.954-12.408,4.988C628.786,141.867,636.229,137.164,644.708,134.978
				z M618.87,154.282c0.069-0.007,0.14-0.005,0.212-0.018c5.996-1.132,12.964-2.818,19.193-6.764
				c5.618-3.556,11.554-8.782,15.112-13.315c0.123-0.152,0.217-0.32,0.297-0.492c1.432-0.054,2.853-0.059,4.266,0.027
				c-3.386,6.683-8.917,13.576-17.081,18.75c-7.708,4.883-15.204,6.047-24.13,5.816C617.382,156.909,618.094,155.576,618.87,154.282
				z M614.903,162.932c0.083,0.012,0.165,0.032,0.255,0.035c10.436,0.427,19.377-0.888,28.243-6.502
				c9.232-5.849,15.474-13.729,19.208-21.451c0.104-0.224,0.166-0.461,0.202-0.698c1.21,0.218,2.415,0.468,3.599,0.79
				c-4.344,10.616-9.158,17.162-18.727,23.224c-11.986,7.59-23.67,10.784-33.777,8.158
				C614.188,165.292,614.523,164.106,614.903,162.932z M614.406,187.863c7.168-2.569,15.591-2.781,24.156-0.674
				c0.058,1.284,0.054,2.566-0.004,3.846c-7.797-2.212-15.729-2.399-23.323-0.553C614.933,189.62,614.654,188.746,614.406,187.863z
				 M613.426,183.66c-0.225-1.26-0.371-2.529-0.484-3.798c9.03-2.132,16.663-2.56,24.338-1.2c0.341,1.324,0.615,2.66,0.816,3.996
				C629.411,180.773,620.86,181.11,613.426,183.66z M620.494,171.665c1.588,0.026,3.196-0.062,4.825-0.246
				c0.465,0.818,0.794,1.5,1.09,2.216c-1.58,0.052-3.177,0.167-4.805,0.346C621.231,173.159,620.882,172.413,620.494,171.665z
				 M631.024,173.673c-0.395-1.077-0.749-1.995-1.244-3.011c1.284-0.28,2.581-0.604,3.887-1.004
				c0.849,1.536,1.544,2.984,2.134,4.452C634.219,173.893,632.626,173.749,631.024,173.673z M637.77,168.229
				c1.347-0.531,2.698-1.106,4.058-1.755c1.688,3.244,2.5,6.088,3.425,9.657l0.012,0.062c-1.534-0.469-3.056-0.871-4.574-1.208
				C639.938,172.68,639.001,170.525,637.77,168.229z M645.641,164.505c1.016-0.56,2.031-1.138,3.047-1.753
				c2.103,3.897,3.731,7.938,4.793,12.043c0.42,1.619,0.737,3.274,1.007,4.927c-0.799-0.374-1.586-0.746-2.401-1.085
				c-0.7-0.29-1.393-0.552-2.082-0.818l-0.595-2.761C648.452,171.33,647.531,168.141,645.641,164.505z M652.308,160.409
				c0.924-0.646,1.815-1.297,2.662-1.959c3.766,5.305,5.641,9.242,7.107,14.917c0.985,3.809,1.501,7.704,1.576,11.619
				c-1.447-1.014-2.931-1.992-4.49-2.882c-0.302-2.808-0.812-5.62-1.523-8.38C656.465,169.172,654.654,164.708,652.308,160.409z
				 M658.306,155.731c-0.02-0.036-0.053-0.062-0.076-0.091c0.979-0.926,1.901-1.872,2.768-2.856
				c4.602,6.089,8.593,12.862,10.351,19.711c1.657,6.463,1.639,13.086,0.764,19.702c-1.281-1.354-2.683-2.669-4.215-3.961
				c0.229-5.366-0.318-10.729-1.662-15.942C664.621,166.044,662.473,161.558,658.306,155.731z M664.167,149.098
				c-0.048-0.064-0.108-0.116-0.16-0.174c0.478-0.686,0.919-1.405,1.366-2.126c7.573,8.131,13.019,15.421,15.004,23.316
				c2.473,9.843,1.188,19.363-2.394,29.874c-0.772-1.312-1.604-2.582-2.512-3.8c1.388-8.083,2.431-17.261,0.477-24.88
				C673.956,163.55,669.41,155.894,664.167,149.098z M680.888,205.922c4.987-13.086,6.99-24.62,3.961-36.68
				c-2.276-9.066-8.502-17.336-17.187-26.526c0.244-0.486,0.483-1.006,0.722-1.511c10.079,6.153,18.026,16.724,20.945,28.015
				c3.599,13.953-2.05,27.987-8.274,37.138C680.998,206.214,680.946,206.067,680.888,205.922z M615.328,171.174
				c0.051,0.157,0.12,0.314,0.209,0.463c0.7,1.118,1.151,1.985,1.626,2.979c-1.426,0.244-2.875,0.529-4.359,0.863
				c0.024-1.591,0.112-3.182,0.317-4.764C613.85,170.898,614.586,171.046,615.328,171.174z M616.885,194.519
				c6.922-1.562,14.152-1.255,21.259,0.891c-0.302,2.023-0.751,4.021-1.345,5.982c-5.659-1.697-11.452-2.35-17.111-1.897
				C618.645,197.899,617.701,196.242,616.885,194.519z M632.039,211.849c-0.261-0.17-0.526-0.33-0.781-0.507
				c-3.186-2.184-6.021-4.763-8.483-7.686c4.179-0.05,8.414,0.55,12.578,1.779C634.435,207.645,633.336,209.795,632.039,211.849z
				 M635.75,214.019c1.442-2.3,2.658-4.705,3.674-7.179c0.165,0.066,0.33,0.12,0.501,0.186c5.433,2.246,10.325,6.136,14.856,11.773
				C648.182,218.704,641.666,217.086,635.75,214.019z M660.023,218.553c-5.496-7.562-11.564-12.646-18.461-15.497
				c-0.227-0.092-0.462-0.167-0.691-0.258c0.594-1.954,1.062-3.942,1.396-5.949c0.093,0.036,0.188,0.062,0.279,0.098
				c9.001,3.722,17.751,11.788,22.686,20.694C663.502,218.054,661.766,218.359,660.023,218.553z M669.446,216.41
				c-5.327-10.163-14.97-19.177-25.266-23.433c-0.465-0.19-0.931-0.367-1.398-0.543c0.093-1.325,0.126-2.657,0.104-3.988
				c1.176,0.396,2.346,0.824,3.52,1.303c12.121,5.005,22.152,14.793,26.224,25.391C671.595,215.602,670.538,216.031,669.446,216.41z
				 M648.048,185.782c-1.812-0.747-3.636-1.389-5.461-1.943c-0.162-1.388-0.403-2.77-0.685-4.146
				c2.781,0.741,5.601,1.702,8.544,2.916c4.609,1.905,8.846,4.329,12.577,7.209c8.104,6.25,12.476,12.514,15.449,22.159
				c-0.656,0.426-1.32,0.836-2.004,1.229C671.881,201.693,661.064,191.154,648.048,185.782z M696.597,165.576
				c3.647,14.125-0.274,28.451-9.21,38.694c5.479-9.765,9.501-22.947,6.099-36.119c-3.23-12.515-12.108-24.207-23.338-30.884
				c0.12-0.28,0.241-0.54,0.356-0.824C682.961,141.206,693.018,151.707,696.597,165.576z"/>
		</g>
	</g>
	<g>
	</g>
	<g>
	</g>
	<g>
	</g>
	<g>
	</g>
	<g>
	</g>
	<g>
	</g>
</g>
</svg>
